# xmcd
#
# Track frame offsets:
#	150
#	19110
#	30127
#	50305
#	69742
#
# Disc length: 1192 seconds
# Revision: 0
# Processed by: cddbd v1.5.2PL0 Copyright (c) Steve Scherf et al.
# Submitted via: dBpowerAMP V12.0
#
DISCID=3304a605
DTITLE=Fuge - Eniac
DYEAR=1998
DGENRE=Hardcore
TTITLE0=Release (Responsibility)
TTITLE1=Comatose
TTITLE2=Misguided
TTITLE3=Fractured
TTITLE4=Incantation
EXTD=
EXTT0=
EXTT1=
EXTT2=
EXTT3=
EXTT4=
PLAYORDER=
